<svg xmlns="http://www.w3.org/2000/svg" viewBox="0 0 115 90"><path d="M71.674,29.435H53.209A13.253,13.253,0,0,0,39.956,42.687v8.884A11.546,11.546,0,0,0,43.751,60.1a8,8,0,0,1,2.342,4,2.914,2.914,0,0,0,2.812,2.237,1.282,1.282,0,0,1,.024-.159v-7.9c-.02,0-.038.006-.058.006-.039,0-.075-.011-.114-.012a4.888,4.888,0,0,1-.752-.075c-.112-.02-.221-.044-.33-.071a5,5,0,0,1-.517-.16,5.081,5.081,0,0,1-.584-.259c-.115-.06-.233-.117-.343-.186a4.954,4.954,0,0,1-.459-.327c-.04-.032-.078-.064-.116-.1a5.013,5.013,0,0,1-1.834-3.863l0-.022v0a5.06,5.06,0,0,1,.094-.928V52.28c.006-.029.009-.059.015-.088l0-.009a5.066,5.066,0,0,1,.261-.841l0-.012c.012-.03.023-.061.036-.091l.006-.014a4.91,4.91,0,0,1,.407-.748l.01-.016c.017-.026.034-.052.052-.077l.012-.019a5.063,5.063,0,0,1,.536-.649l.016-.016.056-.056.022-.022a5.108,5.108,0,0,1,.653-.539l.02-.013.051-.033.033-.021a4.988,4.988,0,0,1,.761-.413l.023-.009.029-.011.044-.018h.014a5.024,5.024,0,0,1,1.888-.373c.014,0,.027,0,.042,0s.009,0,.016,0l2.3-.074a4.175,4.175,0,0,0,4.175-4.174,4.175,4.175,0,0,1,4.175-4.175H72.52a4.67,4.67,0,0,0,4.609-3.917A5.527,5.527,0,0,0,71.674,29.435Z" fill="current"/></svg>