<svg xmlns="http://www.w3.org/2000/svg" viewBox="0 0 115 90"><path d="M52.127,48.176a5.495,5.495,0,0,0,5.181-5.422h0a5.434,5.434,0,0,1,5.434-5.434h10.73c2.291,1.578,3.7,4.027,3.7,7.7V58.406h.03v.768A33.906,33.906,0,1,0,42.4,65.923a4.491,4.491,0,0,1,2.817,3.044l.007.026a3.791,3.791,0,0,0,3.66,2.911h0v-.563l0-7.553V58.272h-.008a4.931,4.931,0,0,1-1.807-.35c-.014-.006-.028-.015-.041-.022a5.085,5.085,0,0,1-2.573-2.292c-.025-.048-.052-.094-.077-.143a4.782,4.782,0,0,1-.247-.589c-.047-.135-.092-.271-.128-.411l-.008-.037,0-.016c-.035-.14-.063-.281-.085-.425a5.024,5.024,0,0,1-.071-.708v-.007c0-.035,0-.069,0-.1a5.064,5.064,0,0,1,.09-.894l.007-.039c.007-.038.017-.076.026-.113a5,5,0,0,1,.246-.793l.029-.074c.014-.031.031-.061.045-.092a4.993,4.993,0,0,1,.347-.64c.031-.048.058-.1.09-.146l.006-.009c.012-.017.026-.033.039-.051a5.05,5.05,0,0,1,.428-.518c.069-.074.137-.15.21-.22a4.979,4.979,0,0,1,.508-.419c.1-.073.2-.143.3-.208a5.041,5.041,0,0,1,.551-.3c.121-.056.246-.1.372-.15.151-.056.306-.1.463-.144a4.932,4.932,0,0,1,.533-.109c.151-.022.3-.037.459-.046.1-.006.192-.016.289-.016" fill="current"/></svg>