<svg xmlns="http://www.w3.org/2000/svg" viewBox="0 0 115 90"><path d="M73.826,23.869H54.46A17.25,17.25,0,0,0,37.21,41.118V52.683a15.028,15.028,0,0,0,4.94,11.1,10.408,10.408,0,0,1,3.047,5.2A3.792,3.792,0,0,0,48.858,71.9a1.751,1.751,0,0,1,.031-.206V58.285h-.025a4.375,4.375,0,0,1-1.33-.184,5.073,5.073,0,0,1-3.088-2.479c-.025-.048-.053-.094-.077-.143a4.847,4.847,0,0,1-.247-.589c-.047-.135-.092-.271-.128-.411-.04-.156-.07-.317-.095-.479a5.065,5.065,0,0,1-.072-.713c0-.023,0-.047,0-.071a5.06,5.06,0,0,1,.094-.928c.006-.035.011-.071.018-.1a5.066,5.066,0,0,1,.261-.841c.016-.039.03-.078.047-.117a4.91,4.91,0,0,1,.407-.748c.024-.038.049-.075.074-.112a5.063,5.063,0,0,1,.536-.649c.031-.032.063-.063.094-.094a5.108,5.108,0,0,1,.653-.539c.034-.023.069-.044.1-.067a4.988,4.988,0,0,1,.761-.413c.031-.014.064-.025.1-.038a5.019,5.019,0,0,1,.865-.268c.022,0,.044-.006.066-.011a5.091,5.091,0,0,1,.971-.1h3.017a5.434,5.434,0,0,0,5.434-5.434h0a5.434,5.434,0,0,1,5.434-5.434H74.928a6.077,6.077,0,0,0,6-5.1h0A7.194,7.194,0,0,0,73.826,23.869Z" fill="current"/></svg>