<svg xmlns="http://www.w3.org/2000/svg" viewBox="0 0 115 90"><path d="M66.08,23.869H54.46A17.25,17.25,0,0,0,37.21,41.118V52.683a15.028,15.028,0,0,0,4.94,11.1,10.408,10.408,0,0,1,3.047,5.2A3.792,3.792,0,0,0,48.858,71.9a1.751,1.751,0,0,1,.031-.206V58.285h-.025a4.375,4.375,0,0,1-1.33-.184,5.073,5.073,0,0,1-3.088-2.479c-.025-.048-.053-.094-.077-.143a4.847,4.847,0,0,1-.247-.589c-.047-.135-.092-.271-.128-.411-.021-.081-.033-.165-.049-.248-.012-.05-.034-.1-.043-.147a5.46,5.46,0,0,1-.062-.667c0-.044-.012-.085-.013-.13,0-.023,0-.047,0-.071,0-.062.016-.119.018-.18a5.1,5.1,0,0,1,.069-.682c0-.021,0-.045.007-.066s.011-.071.018-.1c.014-.065.042-.123.058-.187a4.8,4.8,0,0,1,.156-.5c.018-.049.027-.1.047-.151s.03-.078.047-.117c.026-.059.064-.11.092-.168a4.94,4.94,0,0,1,.236-.436c.029-.047.049-.1.079-.144s.049-.075.074-.112.063-.073.092-.112a5.356,5.356,0,0,1,.352-.427c.033-.035.058-.076.092-.11s.063-.063.094-.094c.014-.013.031-.023.045-.037a5.128,5.128,0,0,1,.521-.43c.031-.022.056-.05.087-.072s.069-.044.1-.067.047-.024.069-.038a5.3,5.3,0,0,1,.625-.339c.023-.01.044-.026.067-.036s.064-.025.1-.038.056-.015.083-.025a4.831,4.831,0,0,1,.747-.232c.012,0,.023-.009.035-.011s.044-.006.066-.011.046,0,.068-.007a5.1,5.1,0,0,1,.88-.088l.023,0h3.017a5.434,5.434,0,0,0,5.434-5.434h0a5.434,5.434,0,0,1,5.434-5.434H74.928a6.077,6.077,0,0,0,6-5.1l1.364-8.353Z" fill="current"/></svg>