<svg xmlns="http://www.w3.org/2000/svg" viewBox="0 0 115 90"><path d="M70.317,23.869H54.462a17.225,17.225,0,0,0-5.271.827A9.236,9.236,0,1,0,38.367,34.951a17.18,17.18,0,0,0-1.155,6.167V52.683c0,.042,0,.084,0,.126A11.236,11.236,0,0,0,48.535,63.788h.355v-5.5h-.026a4.41,4.41,0,0,1-1.326-.183,5.071,5.071,0,0,1-3.092-2.48c-.025-.048-.052-.094-.077-.143a4.847,4.847,0,0,1-.247-.589c-.047-.135-.092-.271-.128-.411-.022-.087-.036-.177-.052-.266-.01-.044-.031-.084-.038-.128a5.207,5.207,0,0,1-.062-.651c0-.049-.014-.1-.015-.147,0-.023,0-.047,0-.071,0-.068.017-.131.02-.2a5.437,5.437,0,0,1,.063-.631c.006-.032,0-.067.011-.1s.011-.071.018-.1c.015-.072.046-.138.065-.209.038-.149.084-.294.136-.438.023-.063.035-.131.06-.194.016-.039.03-.078.047-.117.03-.068.073-.128.106-.194.064-.133.134-.261.21-.387.032-.054.056-.114.091-.167.024-.038.048-.075.074-.112s.081-.094.119-.144c.1-.132.2-.26.314-.381.036-.04.065-.086.1-.124s.062-.063.095-.094c.016-.016.035-.027.051-.043a5.187,5.187,0,0,1,.506-.417c.033-.024.061-.055.1-.079s.069-.044.1-.067.052-.026.077-.042a5.158,5.158,0,0,1,.612-.332c.025-.011.047-.028.072-.039s.064-.025.1-.038.061-.016.09-.027a5.014,5.014,0,0,1,.738-.23c.013,0,.024-.008.037-.011s.044-.006.067-.011.047,0,.07-.007a5.149,5.149,0,0,1,.875-.088l.024,0h3.02a5.434,5.434,0,0,0,5.434-5.434h0a5.434,5.434,0,0,1,5.434-5.434h8.66a6.077,6.077,0,0,0,6-5.1h0A7.193,7.193,0,0,0,70.317,23.869Z" fill="current"/></svg>