<svg xmlns="http://www.w3.org/2000/svg" viewBox="0 0 115 90"><path d="M73.346,26.822a17.158,17.158,0,0,0-9.514-2.948c-.013,0-.025,0-.037,0H53.88a19.486,19.486,0,0,0-19.309,16.8V71.127a5,5,0,0,0,5,5.013h9.311V58.284h-.011a5.03,5.03,0,0,1-4.425-2.663c-.025-.048-.053-.094-.077-.143a4.847,4.847,0,0,1-.247-.589c-.047-.135-.092-.271-.128-.411-.04-.156-.07-.317-.095-.479a5.065,5.065,0,0,1-.072-.713c0-.023,0-.047,0-.071a5.06,5.06,0,0,1,.094-.928c.006-.035.011-.071.018-.1a5.066,5.066,0,0,1,.261-.841c.016-.039.03-.078.047-.117a4.91,4.91,0,0,1,.407-.748c.024-.038.049-.075.074-.112a5.063,5.063,0,0,1,.536-.649c.031-.032.063-.063.094-.094a5.108,5.108,0,0,1,.653-.539c.034-.023.069-.044.1-.067a4.988,4.988,0,0,1,.761-.413c.031-.014.064-.025.1-.038a5.019,5.019,0,0,1,.865-.268c.022,0,.044-.006.066-.011a5.091,5.091,0,0,1,.971-.1h.011v-.007c.09,0,.173-.008.263-.009l.143,0h1.97c2.228,0,5.189.015,5.189.015,9.025,0,14.219-3.833,17.144-7.571h0A16.915,16.915,0,0,0,76.2,34.842l.021-.074A7.275,7.275,0,0,0,73.346,26.822Z" fill="current"/></svg>