<svg xmlns="http://www.w3.org/2000/svg" viewBox="0 0 500 500"><path d="M453.663,292.24a11.485,11.485,0,0,0-3.86.625,11.466,11.466,0,0,0-5.25,3.721l-7.654,9.675a11.251,11.251,0,0,1-1.086,1.177c-.094.09-.2.168-.292.253a11.286,11.286,0,0,1-.972.78c-.093.066-.188.127-.283.19a11.6,11.6,0,0,1-1.164.682c-.061.03-.121.062-.183.092a11.561,11.561,0,0,1-1.456.592h0l3.419-5.523-5.1-.057a11.453,11.453,0,0,0-8.33,3.468L316.221,256.667l-2.083-4.335L303.3,151.253a20.652,20.652,0,0,0-14.662-17.324l-30.84-9.074V113.663a8.426,8.426,0,0,0,5.594-2.636c.178-.189.347-.389.507-.589a8.388,8.388,0,0,0,1.786-5.188V86.636a14.145,14.145,0,0,0-11.1-13.808h.04l-.173-.034c-.111-.024-.226-.038-.337-.059a30.376,30.376,0,0,0-10.521-.1c-.128.018-.253.043-.38.065-.186.037-.374.063-.56.1h.083a14.5,14.5,0,0,0-11.311,14.24v3.681a20.31,20.31,0,0,0,4.2,11.979,9.227,9.227,0,0,1,1.761,4.746v17.4l-30.274,9.029A20.654,20.654,0,0,0,192.5,151.307L180.883,258.332v22.84c0,.024,0,.049,0,.073a1.318,1.318,0,1,0,2.635-.073v-8.6a.432.432,0,0,1,.864,0v10.8c0,.024,0,.048,0,.073a1.318,1.318,0,1,0,2.635-.073v-10.8a.432.432,0,0,1,.863,0v11.845a1.318,1.318,0,0,0,2.636,0V272.568a.432.432,0,0,1,.863,0v10.8c0,.024,0,.049,0,.073a1.318,1.318,0,0,0,2.635-.073V269.933a.469.469,0,0,1,.848-.275l.933,1.286a2.345,2.345,0,0,1,.446,1.376v1.748a1.426,1.426,0,1,0,2.852,0v-4.1a4.672,4.672,0,0,0-.463-2.029l-4.616-9.607h.046L206.5,217.01v37.157h0v4.7A24.724,24.724,0,0,0,223.973,282.5l171.973,51.648L409.685,345.2l7.4-11.952-.54-1.937a1.171,1.171,0,0,1,.817-1.444l2.189-.6,3.121-5.042,10.9,8.77,7.4-11.952-.54-1.937a1.171,1.171,0,0,1,.817-1.444l2.189-.6,15.33-24.763ZM288.486,243.16V207.046l11.542,41.735Zm114.506,79.608L384.67,312.726l27.058,7.091A11.441,11.441,0,0,1,402.992,322.768Z" fill="current"/><polygon points="219.192 175.332 206.505 217.01 206.505 254.003 247.801 248.541 219.192 175.332" fill="#606060" opacity="0.1"/><path d="M242.346,112.3h-.025l15.451,9.834v-8.443l-10.4-.014a9.949,9.949,0,0,1-5.026-1.377" fill="#606060" opacity="0.1"/><path d="M453.663,292.24a11.485,11.485,0,0,0-3.86.625,11.466,11.466,0,0,0-5.25,3.721l-7.654,9.675a11.464,11.464,0,0,1-1.086,1.177c-.094.09-.195.168-.292.253a11.286,11.286,0,0,1-.972.78c-.093.066-.188.127-.283.19a11.6,11.6,0,0,1-1.164.682c-.061.03-.121.062-.183.092a11.561,11.561,0,0,1-1.456.592h0l-8.79,14.2,10.9,8.77,7.4-11.952-.54-1.937a1.171,1.171,0,0,1,.817-1.444l2.189-.6,15.33-24.763Z" fill="#606060" opacity="0.1"/><polygon points="296.715 225.931 288.485 175.331 288.485 207.044 300.028 248.781 300.467 248.995 296.715 225.931" fill="#606060" opacity="0.1"/><path d="M300.467,249l-.439-.214-11.543-5.622-25.461,3.368,121.646,66.2,27.058,7.091a11.478,11.478,0,0,0,1.284-1.349l7.654-9.674a11.5,11.5,0,0,1,.781-.879Z" fill="#606060" opacity="0.1"/></svg>