<svg xmlns="http://www.w3.org/2000/svg" viewBox="0 0 175 200"><path d="M142.42,64.845a20.651,20.651,0,0,0-14.671-17.316l-30.84-9.075a11.25,11.25,0,0,1-20.4-.007h0v-.009l-30.274,9.03A20.652,20.652,0,0,0,31.62,64.9L20,171.924H33.177L45.622,130.6v37.157H127.6V120.636l12.525,45.288h13.131Z" fill="#e6e6e6"/><polygon points="45.622 130.602 45.622 167.759 81.117 167.759 58.309 88.924 45.622 130.602" opacity="0.1"/><g opacity="0.1"><polyline points="127.602 88.923 127.602 120.636 140.127 165.924 135.832 139.523 127.602 88.923"/></g><path d="M106.25,34.726H96.917v3.721h0a11.25,11.25,0,0,1-20.406,0h0V34.726H67.146a8.7,8.7,0,0,0-8.67,8.67A15.321,15.321,0,0,0,73.8,58.717H99.6A15.321,15.321,0,0,0,114.92,43.4,8.7,8.7,0,0,0,106.25,34.726Z" fill="#e6e6e6"/><path d="M106.25,34.726H96.917v3.721h0a11.25,11.25,0,0,1-20.406,0h0V34.726H67.146a8.7,8.7,0,0,0-8.67,8.67A15.321,15.321,0,0,0,73.8,58.717h2.715V79.378a1.824,1.824,0,1,0,3.647,0V58.717H93.242V79.378a1.824,1.824,0,1,0,3.647,0V58.717H99.6A15.321,15.321,0,0,0,114.92,43.4,8.7,8.7,0,0,0,106.25,34.726Z" opacity="0.1"/></svg>