<svg xmlns="http://www.w3.org/2000/svg" viewBox="0 0 500 500">
  <path
    d="M288.08,254.121H205.859l-.149,2.205a731.032,731.032,0,0,0,5.934,154.245,88.358,88.358,0,0,0,4.08,16.589l.241,4.1H227.78l.482-4.092a220.679,220.679,0,0,0,6.643-33.129l4.421-36.352c1.846-12.882,3.365-25.992,4.517-38.963l1.687-19a1.067,1.067,0,0,1,.926-1.009,1.134,1.134,0,0,1,1.217.63c-.564,31.559-.42,68.759,4.908,105.4a88.279,88.279,0,0,0,4.079,16.589l.241,4.1h11.815l.494-4.092c.284-1.008.624-2.128,1.016-3.423,3.666-12.082,12.249-40.374,17.371-123.418l-.015-.1c.007-.1.015-.2.023-.306.015-.179.03-.357.036-.543.445-12.846.592-26.068.44-39.3Z"
    fill="current" />
</svg>