<svg xmlns="http://www.w3.org/2000/svg" viewBox="0 0 115 90"><path d="M102.08,32.472a.749.749,0,0,0,.469-.843c-.061-.321-.448-1.614-.794-2.746a2.707,2.707,0,0,0-2.494-1.914l-6.118-.183a71.766,71.766,0,0,1-19.7-7.435,1.022,1.022,0,0,0-1.284.172l-.2.552c-.174.471-.367,1.048-.573,1.7a7.5,7.5,0,0,1-12.606,2.911l-.047-.05a1.028,1.028,0,0,0-1.317.855l-.493,9.2a1.028,1.028,0,0,0,1.02,1.151H79.322l6.121,0A41.63,41.63,0,0,0,102.08,32.472Z" fill="#e6e6e6"/><path d="M102.08,32.472a.749.749,0,0,0,.469-.843c-.061-.321-.448-1.614-.794-2.746a2.707,2.707,0,0,0-2.494-1.914l-6.118-.183a71.766,71.766,0,0,1-19.7-7.435,1.022,1.022,0,0,0-1.284.172l-.2.552c-.174.471-.367,1.048-.573,1.7a7.5,7.5,0,0,1-12.606,2.911l-.047-.05a1.028,1.028,0,0,0-1.317.855l-.493,9.2a1.028,1.028,0,0,0,1.02,1.151H79.322l6.121,0A41.63,41.63,0,0,0,102.08,32.472Z" opacity="0.1"/><path d="M61.051,38.355a.748.748,0,0,0,.469-.843c-.061-.321-.448-1.613-.794-2.745a2.708,2.708,0,0,0-2.494-1.915l-6.118-.183a71.731,71.731,0,0,1-19.7-7.435,1.022,1.022,0,0,0-1.284.173l-.2.552c-.174.471-.367,1.048-.573,1.7a7.5,7.5,0,0,1-12.606,2.91l-.047-.049a1.027,1.027,0,0,0-1.317.854l-.493,9.2a1.027,1.027,0,0,0,1.019,1.151H38.293l6.121.006A41.605,41.605,0,0,0,61.051,38.355Z" fill="#e6e6e6"/></svg>