<svg xmlns="http://www.w3.org/2000/svg" viewBox="0 0 500 500">
  <path
    d="M303.3,151.253a20.651,20.651,0,0,0-14.671-17.316l-30.84-9.074a11.25,11.25,0,0,1-20.4-.008h0v-.008l-30.274,9.03a20.65,20.65,0,0,0-14.613,17.43l-11.62,107.025H194.06l12.445-41.322v37.157h81.98V207.044l12.525,45.288h13.131Z"
    fill="#e6e6e6" />
  <polygon points="206.505 217.01 206.505 254.167 242 254.167 219.192 175.332 206.505 217.01" opacity="0.1" />
  <g opacity="0.1">
    <polyline points="288.485 175.331 288.485 207.044 301.01 252.332 296.715 225.931 288.485 175.331" />
  </g>
  <path
    d="M267.133,121.134H257.8v3.721h0a11.25,11.25,0,0,1-20.406,0h0v-3.721h-9.365a8.7,8.7,0,0,0-8.67,8.67,15.32,15.32,0,0,0,15.321,15.321h25.8A15.32,15.32,0,0,0,275.8,129.8,8.7,8.7,0,0,0,267.133,121.134Z"
    fill="#e6e6e6" />
  <path
    d="M267.133,121.134H257.8v3.721h0a11.25,11.25,0,0,1-20.406,0h0v-3.721h-9.365a8.7,8.7,0,0,0-8.67,8.67,15.32,15.32,0,0,0,15.321,15.321h2.714v20.662a1.824,1.824,0,0,0,3.647,0V145.125h13.084v20.662a1.824,1.824,0,0,0,3.647,0V145.125h2.71A15.32,15.32,0,0,0,275.8,129.8,8.7,8.7,0,0,0,267.133,121.134Z"
    opacity="0.1" />
</svg>