<svg xmlns="http://www.w3.org/2000/svg" viewBox="0 0 500 500"  ><g id="bfe8f50f-bc6c-4284-ab99-6b1246fa6d59" data-name="body"><path d="M303.3,151.253a20.651,20.651,0,0,0-14.671-17.316l-30.84-9.074a11.25,11.25,0,0,1-20.4-.008h0v-.008l-30.274,9.03a20.65,20.65,0,0,0-14.613,17.43l-11.62,107.025H194.06l12.445-41.322v37.157h81.98V207.044l12.525,45.288h13.131Z" fill="current"/><polygon points="206.505 217.01 206.505 254.167 288.485 254.167 250 254.167 219.192 175.332 206.505 217.01" opacity="0.1"/><g opacity="0.1"><polyline points="288.485 175.331 288.485 207.044 301.01 252.332 296.715 225.931 288.485 175.331"/></g></g></svg>