<svg xmlns="http://www.w3.org/2000/svg" viewBox="0 0 500 500"><path d="M453.663,292.24a11.46,11.46,0,0,0-9.11,4.346l-7.654,9.675a11.455,11.455,0,0,1-10.02,4.3l-7.046,11.38L433.572,333l7.4-11.952-.54-1.937a1.171,1.171,0,0,1,.817-1.444l2.189-.6,15.33-24.763Z" fill="current"/><path d="M426.879,310.561a11.455,11.455,0,0,0,10.02-4.3l7.654-9.675a11.46,11.46,0,0,1,9.11-4.346l5.1.057-15.33,24.763-2.189.6a1.171,1.171,0,0,0-.817,1.444l.54,1.937L433.572,333l-13.739-11.054Z" fill="#606060" opacity="0.1"/><path d="M429.776,304.447a11.458,11.458,0,0,0-9.11,4.347l-7.654,9.674a11.455,11.455,0,0,1-10.02,4.3l-7.046,11.38,13.74,11.054,7.4-11.952-.54-1.937a1.171,1.171,0,0,1,.817-1.444l2.189-.6L434.882,304.5Z"/></svg>