<svg xmlns="http://www.w3.org/2000/svg" viewBox="0 0 500 500"><path d="M297.368,436.471c-.044-.045-.094-.092-.149-.141a6.035,6.035,0,0,0-1.2-.834,6.279,6.279,0,0,0-2.876-.992c-.076-.007-.148-.025-.225-.029l-.177-.009c-.441-.023-.879-.1-1.32-.1-2.3,0-6.275-1.576-10.114-3.408h0c-7.581-3.31-8.6-13.05-8.6-13.05H255.665l-2.731,24.442a1,1,0,0,0,.992,1.12h15.011v-2l5.678,1.2a60.433,60.433,0,0,0,9.8.8h13.89a1,1,0,0,0,1-1.057C299.212,441.128,298.833,437.935,297.368,436.471Z" fill="current"/><path d="M297.368,436.471c-.044-.045-.094-.092-.149-.141a6.035,6.035,0,0,0-1.2-.834,6.279,6.279,0,0,0-2.876-.992c-.076-.007-.148-.025-.225-.029l-.177-.009c-.441-.023-.879-.1-1.32-.1-2.3,0-6.275-1.576-10.114-3.408h0c-7.581-3.31-8.6-13.05-8.6-13.05H255.665l-2.731,24.442a1,1,0,0,0,.992,1.12h15.011v-2l5.678,1.2a60.433,60.433,0,0,0,9.8.8h13.89a1,1,0,0,0,1-1.057C299.212,441.128,298.833,437.935,297.368,436.471Z" opacity="0.1"/><path d="M256.434,442.367c-.044-.044-.094-.091-.149-.14a6.082,6.082,0,0,0-1.2-.835,6.29,6.29,0,0,0-2.876-.992c-.076-.006-.149-.025-.225-.029l-.177-.009c-.441-.022-.879-.1-1.32-.1-2.3,0-6.275-1.576-10.114-3.408h0c-7.581-3.309-8.6-13.05-8.6-13.05H214.731L212,448.247a1,1,0,0,0,.992,1.12H228v-1.994l5.678,1.2a60.434,60.434,0,0,0,9.8.8h13.89a1,1,0,0,0,1-1.057C258.278,447.024,257.9,443.832,256.434,442.367Z"/></svg>