<svg xmlns="http://www.w3.org/2000/svg" viewBox="0 0 500 500"><path d="M293.156,435.509c-1.372-.223-5.9-.917-9.431-1.746a28.473,28.473,0,0,1-13.464-7.434l-.269-.265-1.777,1.887a8.576,8.576,0,0,1-8.732,2.328l-3.258-.988-1.62,13.085a6.923,6.923,0,0,1,1.478,1.166H277.4l5.291.005h16.3v-1.183A6.944,6.944,0,0,0,293.156,435.509Z" fill="current"/><path d="M293.156,435.509c-1.372-.223-5.9-.917-9.431-1.746a28.473,28.473,0,0,1-13.464-7.434l-.269-.265-1.777,1.887a8.576,8.576,0,0,1-8.732,2.328l-3.258-.988-1.62,13.085a6.923,6.923,0,0,1,1.478,1.166H277.4l5.291.005h16.3v-1.183A6.944,6.944,0,0,0,293.156,435.509Z" opacity="0.1"/><path d="M256.083,443.542a6.923,6.923,0,0,0-1.478-1.166h0a6.912,6.912,0,0,0-2.4-.867c-1.372-.223-5.9-.917-9.431-1.746a28.469,28.469,0,0,1-13.464-7.434l-.269-.265-1.777,1.887a8.578,8.578,0,0,1-8.733,2.328l-3.258-.988-1.764,14.251h22.936l5.29.005h16.3v-1.183A6.927,6.927,0,0,0,256.083,443.542Z" fill="#current"/></svg>