<svg xmlns="http://www.w3.org/2000/svg" viewBox="0 0 500 500"><path d="M261.925,68.6a17.166,17.166,0,0,0-9.637-2.942h-9.323a17.266,17.266,0,0,0-10.213,3.371,17.411,17.411,0,0,0-1.985,1.681c-.035.036-.066.076-.1.112a19.066,19.066,0,0,0-2.869,3.863,17.183,17.183,0,0,0-2.082,8.222V94.47a15.027,15.027,0,0,0,4.939,11.105,10.4,10.4,0,0,1,3.048,5.2,3.791,3.791,0,0,0,3.66,2.911,1.766,1.766,0,0,1,.032-.206v-11.9l0-1.516h-.009c-.012,0-.025,0-.038,0a5.027,5.027,0,0,1-4.424-2.664c-.026-.047-.053-.093-.077-.142a4.853,4.853,0,0,1-.248-.589c-.047-.136-.091-.271-.127-.411a4.717,4.717,0,0,1-.095-.479,4.921,4.921,0,0,1-.072-.713c0-.023,0-.047,0-.071a5.06,5.06,0,0,1,.093-.928c.007-.035.011-.071.019-.105a4.974,4.974,0,0,1,.261-.841c.015-.039.03-.078.047-.117a4.994,4.994,0,0,1,.406-.748c.025-.038.049-.075.075-.112a4.974,4.974,0,0,1,.535-.649c.031-.032.063-.063.095-.094a5.04,5.04,0,0,1,.653-.539c.034-.023.069-.045.1-.067a4.941,4.941,0,0,1,.761-.413c.031-.014.064-.025.1-.038a5.036,5.036,0,0,1,.864-.268c.022-.005.045-.006.067-.011a5.081,5.081,0,0,1,.97-.1h.075v-.006h.006a.438.438,0,0,1,.083-.005l.1,0,.121,0,.145,0h1.969c2.228,0,5.19.015,5.19.015,9.025,0,14.219-3.833,17.144-7.571h0a16.953,16.953,0,0,0,2.608-5.767l.02-.074A7.283,7.283,0,0,0,261.925,68.6Z" fill="current"/></svg>