<svg xmlns="http://www.w3.org/2000/svg" viewBox="0 0 500 500"><path d="M258.8,65.656H242.942a17.23,17.23,0,0,0-5.271.827,9.235,9.235,0,1,0-10.823,10.255,17.18,17.18,0,0,0-1.155,6.167V94.6a11.236,11.236,0,0,0,11.322,10.979h.356v-5.5h-.026a4.406,4.406,0,0,1-1.326-.183,5.069,5.069,0,0,1-3.092-2.481c-.025-.047-.053-.093-.077-.142a4.853,4.853,0,0,1-.248-.589c-.047-.136-.091-.271-.127-.411-.023-.087-.036-.177-.053-.266-.01-.044-.03-.084-.037-.128a5.207,5.207,0,0,1-.062-.651c0-.05-.015-.1-.015-.147,0-.023,0-.047,0-.071,0-.068.017-.131.02-.2a5.032,5.032,0,0,1,.063-.631c.006-.032,0-.067.01-.1s.011-.071.018-.105c.016-.072.047-.138.065-.209.039-.149.085-.294.136-.438.023-.063.035-.131.061-.194.016-.039.03-.078.047-.117.029-.068.073-.128.105-.194.065-.133.135-.261.21-.387.033-.054.056-.114.091-.167l.074-.112c.036-.051.082-.094.119-.144.1-.132.2-.26.315-.381.036-.04.065-.086.1-.124s.063-.063.095-.094c.016-.016.036-.027.052-.043a5.187,5.187,0,0,1,.506-.417c.033-.025.061-.055.095-.079s.069-.045.1-.067.052-.026.077-.042a5.006,5.006,0,0,1,.612-.332c.024-.011.046-.028.072-.039s.064-.025.095-.038.062-.016.09-.027a4.989,4.989,0,0,1,.739-.23c.012,0,.024-.008.036-.011s.045-.006.067-.011.048,0,.071-.007a5.148,5.148,0,0,1,.874-.088c.009,0,.017,0,.025,0h3.019a5.434,5.434,0,0,0,5.434-5.434h0a5.435,5.435,0,0,1,5.435-5.434h8.66a6.077,6.077,0,0,0,6-5.1h0A7.194,7.194,0,0,0,258.8,65.656Z" fill="current"/></svg>