<svg xmlns="http://www.w3.org/2000/svg" viewBox="0 0 500 500"><path d="M258.782,65.656H242.928A17.24,17.24,0,0,0,227.7,74.8a9.247,9.247,0,1,0-2.026,17.1v2.7A11.238,11.238,0,0,0,237,105.575h.355v-5.5h-.024l-.092,0c-.046,0-.09,0-.136,0-.148,0-.3-.025-.449-.045h-.013c-.071-.009-.143-.02-.215-.034-.093-.017-.188-.047-.283-.072s-.165-.039-.246-.064l-.01,0-.012-.005a5.073,5.073,0,0,1-2.949-2.436c-.025-.047-.053-.093-.077-.142a4.853,4.853,0,0,1-.248-.589c-.047-.136-.091-.271-.127-.411-.009-.035-.013-.072-.021-.107a2.194,2.194,0,0,1-.084-.287,5.064,5.064,0,0,1-.06-.78l0-.018c0-.023,0-.047,0-.071s0-.032,0-.049a5.181,5.181,0,0,1,.087-.869v-.01c.007-.035.011-.071.018-.105s.014-.04.019-.06c.016-.071.027-.143.046-.212.008-.028.011-.056.02-.083a4.666,4.666,0,0,1,.177-.485h0a5.039,5.039,0,0,1,.439-.84l.014-.025.074-.112c.016-.022.036-.04.052-.062a5.11,5.11,0,0,1,.424-.515c.022-.023.039-.05.06-.072s.041-.041.062-.062.023-.026.036-.038.031-.036.048-.052c.1-.1.222-.172.333-.258.09-.073.173-.156.269-.223.034-.023.069-.045.1-.067s.056-.028.082-.045a4.866,4.866,0,0,1,.535-.306c.027-.012.056-.018.083-.029s.039-.024.061-.033.064-.025.095-.038c.116-.046.24-.072.359-.111.1-.03.184-.074.283-.1.032-.009.067-.012.1-.02s.08-.029.122-.038c.022-.005.045-.006.067-.011.044-.008.09-.006.134-.013s.066-.014.1-.019l.054-.011c.04-.006.079-.018.12-.023.08-.009.163-.008.245-.014l.109-.006c.063,0,.125-.01.189-.01h3.024a5.434,5.434,0,0,0,5.434-5.434,5.434,5.434,0,0,1,5.434-5.434h8.66a6.076,6.076,0,0,0,6-5.1A7.194,7.194,0,0,0,258.782,65.656Z" fill="current"/></svg>