<svg xmlns="http://www.w3.org/2000/svg" viewBox="0 0 500 500"><path d="M240.607,89.963a5.494,5.494,0,0,0,5.182-5.422h0a5.434,5.434,0,0,1,5.434-5.434h10.729c2.291,1.578,3.7,4.027,3.7,7.7v13.389h.03v.768a33.906,33.906,0,1,0-34.808,6.749,4.492,4.492,0,0,1,2.818,3.044l.006.026a3.792,3.792,0,0,0,3.66,2.911h0v-.563l0-7.553v-5.516h-.007a4.932,4.932,0,0,1-1.808-.35l-.041-.022a5.087,5.087,0,0,1-2.572-2.292c-.025-.048-.053-.094-.077-.143a4.787,4.787,0,0,1-.248-.589c-.047-.135-.091-.271-.127-.411l-.008-.037-.006-.016c-.034-.14-.062-.281-.084-.425a5.024,5.024,0,0,1-.072-.708V95.06c0-.035,0-.069,0-.1a5.16,5.16,0,0,1,.09-.894l.007-.039c.008-.038.018-.076.026-.113a5.108,5.108,0,0,1,.247-.793l.029-.074c.014-.031.03-.061.044-.092a5.12,5.12,0,0,1,.347-.64c.031-.048.058-.1.09-.146l.007-.009c.011-.017.026-.033.039-.051a5.041,5.041,0,0,1,.427-.518c.07-.074.137-.15.21-.22a5.1,5.1,0,0,1,.509-.419c.1-.073.2-.143.3-.208a5.12,5.12,0,0,1,.55-.3c.121-.056.247-.1.373-.15a4.781,4.781,0,0,1,.463-.144,4.914,4.914,0,0,1,.532-.109c.151-.023.305-.037.46-.046.1-.006.191-.016.288-.016" fill="current"/></svg>