<svg xmlns="http://www.w3.org/2000/svg" viewBox="0 0 500 500"><path d="M254.561,65.656H242.94a17.249,17.249,0,0,0-17.249,17.249V94.47a15.027,15.027,0,0,0,4.939,11.105,10.41,10.41,0,0,1,3.048,5.2,3.791,3.791,0,0,0,3.66,2.911,1.989,1.989,0,0,1,.031-.206V100.072h-.024a4.381,4.381,0,0,1-1.331-.184,5.067,5.067,0,0,1-3.087-2.48c-.026-.047-.053-.093-.077-.142a4.853,4.853,0,0,1-.248-.589c-.047-.136-.091-.271-.127-.411-.021-.081-.033-.165-.049-.248-.012-.05-.035-.1-.043-.147a5.091,5.091,0,0,1-.062-.667c0-.044-.013-.085-.013-.13,0-.023,0-.047,0-.071,0-.062.015-.119.018-.18a4.939,4.939,0,0,1,.069-.682c0-.022,0-.045.006-.066s.011-.071.019-.105c.013-.065.041-.123.058-.187a4.8,4.8,0,0,1,.156-.5c.018-.049.027-.1.047-.151s.03-.078.047-.117c.025-.059.063-.11.091-.168a4.949,4.949,0,0,1,.237-.436c.028-.047.048-.1.078-.144s.049-.075.075-.112.063-.073.092-.112a4.955,4.955,0,0,1,.352-.427c.032-.035.058-.076.091-.11s.063-.063.095-.094c.014-.013.03-.023.044-.037a5.252,5.252,0,0,1,.522-.43c.03-.022.056-.05.087-.072s.069-.045.1-.067.046-.024.069-.038a5.145,5.145,0,0,1,.625-.339c.023-.01.043-.026.067-.036s.064-.025.1-.038.056-.015.082-.025a4.877,4.877,0,0,1,.748-.232c.012,0,.022-.009.034-.011s.045-.006.067-.011.045,0,.067-.007a5.107,5.107,0,0,1,.88-.088l.023,0h3.018a5.434,5.434,0,0,0,5.434-5.434h0a5.434,5.434,0,0,1,5.434-5.434h12.171a6.078,6.078,0,0,0,6-5.1l1.364-8.353Z" fill="current"/></svg>