<svg xmlns="http://www.w3.org/2000/svg" viewBox="0 0 500 500"><path d="M261.827,68.609a17.164,17.164,0,0,0-9.515-2.948c-.012,0-.024,0-.037,0h-9.914a19.487,19.487,0,0,0-19.31,16.795v30.463a5,5,0,0,0,5,5.013h9.312V100.071h-.012a5.027,5.027,0,0,1-4.424-2.664c-.026-.047-.053-.093-.077-.142a4.853,4.853,0,0,1-.248-.589c-.047-.136-.091-.271-.127-.411a4.717,4.717,0,0,1-.095-.479,4.921,4.921,0,0,1-.072-.713c0-.023,0-.047,0-.071a5.06,5.06,0,0,1,.093-.928c.007-.035.011-.071.019-.105a4.974,4.974,0,0,1,.261-.841c.015-.039.03-.078.047-.117a4.994,4.994,0,0,1,.406-.748c.025-.038.049-.075.075-.112a4.974,4.974,0,0,1,.535-.649c.031-.032.063-.063.095-.094a5.04,5.04,0,0,1,.653-.539c.034-.023.069-.045.1-.067a4.941,4.941,0,0,1,.761-.413c.031-.014.064-.025.1-.038a5.036,5.036,0,0,1,.864-.268c.022-.005.045-.006.067-.011a5.081,5.081,0,0,1,.97-.1h.012v-.007c.09,0,.173-.008.262-.009l.144,0h1.97c2.228,0,5.189.015,5.189.015,9.025,0,14.219-3.833,17.144-7.571h0a16.934,16.934,0,0,0,2.608-5.767l.02-.074A7.275,7.275,0,0,0,261.827,68.609Z" fill="current"/></svg>