<svg xmlns="http://www.w3.org/2000/svg" viewBox="0 0 500 500"><path d="M260.155,71.222H241.689a13.252,13.252,0,0,0-13.252,13.252v8.884a11.542,11.542,0,0,0,3.795,8.532,8,8,0,0,1,2.342,4,2.913,2.913,0,0,0,2.811,2.237,1.5,1.5,0,0,1,.024-.159v-7.9c-.02,0-.038.006-.058.006-.039,0-.075-.011-.114-.012a4.9,4.9,0,0,1-.752-.075c-.112-.02-.22-.044-.329-.071a5.033,5.033,0,0,1-1.1-.419c-.116-.06-.233-.117-.344-.186a5.3,5.3,0,0,1-.459-.327l-.116-.1a5.016,5.016,0,0,1-1.833-3.863l0-.022v0a5.06,5.06,0,0,1,.093-.928v-.008c.006-.029.01-.059.016-.088l0-.009a4.974,4.974,0,0,1,.261-.841l0-.012c.012-.03.023-.061.036-.091l.006-.014a4.994,4.994,0,0,1,.406-.748l.01-.016c.017-.026.034-.052.052-.077l.013-.019a4.974,4.974,0,0,1,.535-.649l.016-.016.057-.056.022-.022a5.04,5.04,0,0,1,.653-.539l.02-.013.051-.033.033-.021a4.941,4.941,0,0,1,.761-.413l.022-.009.029-.011.045-.018h.013a5.027,5.027,0,0,1,1.888-.373c.015,0,.028,0,.042,0s.009,0,.016,0l2.305-.074a4.174,4.174,0,0,0,4.174-4.174,4.175,4.175,0,0,1,4.175-4.175H261a4.67,4.67,0,0,0,4.608-3.917A5.526,5.526,0,0,0,260.155,71.222Z" fill="current"/></svg>