<svg xmlns="http://www.w3.org/2000/svg" viewBox="0 0 500 500"><path d="M262.307,65.656H242.94a17.249,17.249,0,0,0-17.249,17.249V94.47a15.027,15.027,0,0,0,4.939,11.105,10.41,10.41,0,0,1,3.048,5.2,3.791,3.791,0,0,0,3.66,2.911,1.989,1.989,0,0,1,.031-.206V100.072h-.024a4.381,4.381,0,0,1-1.331-.184,5.067,5.067,0,0,1-3.087-2.48c-.026-.047-.053-.093-.077-.142a4.853,4.853,0,0,1-.248-.589c-.047-.136-.091-.271-.127-.411a4.717,4.717,0,0,1-.095-.479,4.921,4.921,0,0,1-.072-.713c0-.023,0-.047,0-.071a5.06,5.06,0,0,1,.093-.928c.007-.035.011-.071.019-.105a4.974,4.974,0,0,1,.261-.841c.015-.039.03-.078.047-.117a4.994,4.994,0,0,1,.406-.748c.025-.038.049-.075.075-.112a4.974,4.974,0,0,1,.535-.649c.031-.032.063-.063.095-.094a5.04,5.04,0,0,1,.653-.539c.034-.023.069-.045.1-.067a4.941,4.941,0,0,1,.761-.413c.031-.014.064-.025.1-.038a5.036,5.036,0,0,1,.864-.268c.022-.005.045-.006.067-.011a5.081,5.081,0,0,1,.97-.1h3.018a5.434,5.434,0,0,0,5.434-5.434h0a5.434,5.434,0,0,1,5.434-5.434h12.171a6.078,6.078,0,0,0,6-5.1h0A7.194,7.194,0,0,0,262.307,65.656Z" fill="current"/></svg>