<svg xmlns="http://www.w3.org/2000/svg" viewBox="0 0 500 500">
  <path
    d="M205.91,254.246c0,.732.065,73.458.806,97.56.527,17.12,2.528,62.926,3.129,76.558a5.113,5.113,0,0,0,5.12,4.9h16.921A5.13,5.13,0,0,0,237,428.454c1.075-17.576,3.742-60.235,5.273-76.722,1.377-14.833,3.548-59.562,3.569-60a1.08,1.08,0,0,1,1.113-.989H247a1.08,1.08,0,0,1,1.088,1.048c-.007.453-.687,45.4-.251,60.306.455,15.562,1,57.6,1.158,70.111a5.141,5.141,0,0,0,5.124,5.054h16.909a5.107,5.107,0,0,0,5.1-4.61c1.27-12.574,5.512-54.824,6.828-70.548,2.025-24.184,5.16-97.117,5.191-97.851l.006-.13H205.91Z"
    fill="current" />
</svg>