<svg xmlns="http://www.w3.org/2000/svg" viewBox="0 0 500 500">
  <path
    d="M303.3,151.253a20.651,20.651,0,0,0-14.671-17.316l-28.84-8.487v-5.523a2,2,0,0,0-2-2h-20.4a2,2,0,0,0-2,2v5.523l-28.272,8.428a20.65,20.65,0,0,0-14.613,17.43l-11.62,107.025H194.06l12.445-41.322v37.157h81.98V207.044l12.525,45.288h13.131Z"
    fill="current" />
  <polygon points="206.505 217.01 206.505 254.167 242 254.167 219.192 175.332 206.505 217.01" opacity="0.1" />
  <g opacity="0.1">
    <polyline points="288.485 175.331 288.485 207.044 301.01 252.332 296.715 225.931 288.485 175.331" />
  </g>
</svg>