<svg xmlns="http://www.w3.org/2000/svg" viewBox="0 0 500 500">
  <path
    d="M303.3,151.253a20.651,20.651,0,0,0-14.671-17.316l-30.84-9.074a11.25,11.25,0,0,1-20.4-.008h0v-.008l-30.274,9.03a20.65,20.65,0,0,0-14.613,17.43l-11.62,107.025H194.06l12.445-41.322v37.157h81.98V207.044l12.525,45.288h13.131Z"
    fill="current" />
  <polygon points="206.505 217.01 206.505 254.167 242 254.167 219.192 175.332 206.505 217.01" opacity="0.1" />
  <g opacity="0.1">
    <polyline points="288.485 175.331 288.485 207.044 301.01 252.332 296.715 225.931 288.485 175.331" />
  </g>
  <polygon points="256.495 140.899 262.818 126.337 257.796 118.678 247.495 131.365 256.495 140.899" fill="#e6e6e6" />
  <polygon points="238.701 140.921 232.59 126.278 237.4 118.678 247.495 131.365 238.701 140.921" fill="#e6e6e6" />
  <g opacity="0.1">
    <polygon points="256.495 140.899 262.818 126.337 257.796 118.678 247.495 131.365 256.495 140.899" />
  </g>
  <g opacity="0.1">
    <polygon points="238.701 140.921 232.59 126.278 237.4 118.678 247.495 131.365 238.701 140.921" />
  </g>
  <circle cx="247.495" cy="137.513" r="1.932" opacity="0.1" />
  <circle cx="247.495" cy="148.513" r="1.932" opacity="0.1" />
  <circle cx="247.495" cy="159.513" r="1.932" opacity="0.1" />
  <circle cx="247.495" cy="170.513" r="1.932" opacity="0.1" />
  <circle cx="247.495" cy="181.513" r="1.932" opacity="0.1" />
  <circle cx="247.495" cy="192.513" r="1.932" opacity="0.1" />
  <circle cx="247.495" cy="203.513" r="1.932" opacity="0.1" />
  <circle cx="247.495" cy="214.513" r="1.932" opacity="0.1" />
  <circle cx="247.495" cy="225.513" r="1.932" opacity="0.1" />
  <circle cx="247.495" cy="236.513" r="1.932" opacity="0.1" />
  <circle cx="247.495" cy="247.513" r="1.932" opacity="0.1" />
</svg>