<svg xmlns="http://www.w3.org/2000/svg" viewBox="0 0 500 500"><path d="M302.327,443.556H273.2l-1.665-1.544a1.17,1.17,0,0,0-1.657.065l-1.364,1.479H254.461l2.166-17.5h13.385a11.454,11.454,0,0,0,8.93,6.256l12.255,1.415a11.457,11.457,0,0,1,8.491,5.458Z" fill="current"/><g opacity="0.1"><path d="M302.327,443.556H273.2l-1.665-1.544a1.17,1.17,0,0,0-1.657.065l-1.364,1.479H254.461l2.166-17.5h13.385a11.454,11.454,0,0,0,8.93,6.256l12.255,1.415a11.457,11.457,0,0,1,8.491,5.458Z"/></g><path d="M261.375,449.556H232.251l-1.664-1.544a1.171,1.171,0,0,0-1.658.065l-1.363,1.479H213.509l2.166-17.5H229.06a11.457,11.457,0,0,0,8.931,6.256l12.254,1.415a11.456,11.456,0,0,1,8.491,5.458Z" fill="current"/></svg>