<svg xmlns="http://www.w3.org/2000/svg" viewBox="0 0 115 90"><path d="M100.227,32.713c-.231-.8-.508-3.022-.688-3.642a.924.924,0,0,0-.885-.669c-10.077,0-19.853-6.862-19.917-6.884a1.066,1.066,0,0,0-.991.235,8.4,8.4,0,0,0-.794,2.091,2.971,2.971,0,0,1-3.2,2.2c-3.589-.4-14.992-2.427-14.992-2.427a.943.943,0,0,0-1.2.761c0,.01-.008.016-.009.025l-.005.1L56.145,34.772a.946.946,0,0,0,.939,1.06H69a2.542,2.542,0,0,0,1.361-.4l.009-.006a2.539,2.539,0,0,1,2.722,0h0a2.55,2.55,0,0,0,1.363.4H84.12a88.839,88.839,0,0,0,15.091-1.344A1.394,1.394,0,0,0,100.227,32.713Z" fill="#e6e6e6"/><path d="M100.227,32.713c-.231-.8-.508-3.022-.688-3.642a.924.924,0,0,0-.885-.669c-10.077,0-19.853-6.862-19.917-6.884a1.066,1.066,0,0,0-.991.235,8.4,8.4,0,0,0-.794,2.091,2.971,2.971,0,0,1-3.2,2.2c-3.589-.4-14.992-2.427-14.992-2.427a.943.943,0,0,0-1.2.761c0,.01-.008.016-.009.025l-.005.1L56.145,34.772a.946.946,0,0,0,.939,1.06H69a2.542,2.542,0,0,0,1.361-.4l.009-.006a2.539,2.539,0,0,1,2.722,0h0a2.55,2.55,0,0,0,1.363.4H84.12a88.839,88.839,0,0,0,15.091-1.344A1.394,1.394,0,0,0,100.227,32.713Z" opacity="0.1"/><path d="M59.261,38.613c-.232-.8-.508-3.022-.689-3.642a.923.923,0,0,0-.885-.669c-10.076,0-19.852-6.862-19.916-6.884a1.062,1.062,0,0,0-.991.235,8.411,8.411,0,0,0-.8,2.091,2.971,2.971,0,0,1-3.2,2.2c-3.589-.4-14.992-2.427-14.992-2.427a.941.941,0,0,0-1.2.761c0,.01-.008.016-.009.025l-.006.1L15.179,40.672a.946.946,0,0,0,.938,1.06H28.03a2.539,2.539,0,0,0,1.36-.395l.009-.006a2.543,2.543,0,0,1,2.723,0h0a2.539,2.539,0,0,0,1.362.4h9.67a88.817,88.817,0,0,0,15.09-1.344A1.4,1.4,0,0,0,59.261,38.613Z" fill="#e6e6e6"/></svg>