<svg xmlns="http://www.w3.org/2000/svg" viewBox="0 0 115 90"><path d="M44.9,41.732h0a48.836,48.836,0,0,1-8.8-.8l-5.677-1.2v2H16.407a1,1,0,0,1-.992-1.123l1.918-16.5a1,1,0,0,1,.993-.877H32.168a2,2,0,0,1,1.189.391l4.724,3.492c4.055,3,8.8,6.012,13.822,6.507q.657.066,1.319.1l.178.01a6.145,6.145,0,0,1,5.63,4.392c.03.108.076.287.126.482a1,1,0,0,1-.713,1.21c-.334.089-.669.177-.844.221A55.242,55.242,0,0,1,44.9,41.732Z" fill="#e6e6e6"/><path d="M85.9,35.848h0a48.835,48.835,0,0,1-8.8-.8l-5.677-1.2v2H57.409a1,1,0,0,1-.993-1.123l1.918-16.5a1,1,0,0,1,.993-.877H73.169a2,2,0,0,1,1.189.392l4.725,3.492c4.055,3,8.8,6.012,13.821,6.507q.657.064,1.319.1l.178.009a6.144,6.144,0,0,1,5.63,4.393c.03.107.076.286.126.482a1,1,0,0,1-.713,1.21c-.334.088-.669.176-.843.22A55.2,55.2,0,0,1,85.9,35.848Z" fill="#e6e6e6"/><g opacity="0.1"><path d="M85.9,35.848h0a48.835,48.835,0,0,1-8.8-.8l-5.677-1.2v2H57.409a1,1,0,0,1-.993-1.123l1.918-16.5a1,1,0,0,1,.993-.877H73.169a2,2,0,0,1,1.189.392l4.725,3.492c4.055,3,8.8,6.012,13.821,6.507q.657.064,1.319.1l.178.009a6.144,6.144,0,0,1,5.63,4.393c.03.107.076.286.126.482a1,1,0,0,1-.713,1.21c-.334.088-.669.176-.843.22A55.2,55.2,0,0,1,85.9,35.848Z"/></g></svg>