<svg xmlns="http://www.w3.org/2000/svg" viewBox="0 0 115 90"><path d="M71.264,18.151,68.485,21.1a5.065,5.065,0,0,1-5.157,1.375L59.2,21.224A1.527,1.527,0,0,0,57.239,22.5L54.922,32.987a2.546,2.546,0,0,0,2.527,2.858H79.966l3.944,0c8.359,0,14.443-1.011,16.288-3.387a1.962,1.962,0,0,0-.359-2.872c-4.81-2.428-13.516-4.078-26.69-11.7A1.532,1.532,0,0,0,71.264,18.151Z" fill="#e6e6e6"/><path d="M71.264,18.151,68.485,21.1a5.065,5.065,0,0,1-5.157,1.375L59.2,21.224A1.527,1.527,0,0,0,57.239,22.5L54.922,32.987a2.546,2.546,0,0,0,2.527,2.858H79.966l3.944,0c8.359,0,14.443-1.011,16.288-3.387a1.962,1.962,0,0,0-.359-2.872c-4.81-2.428-13.516-4.078-26.69-11.7A1.532,1.532,0,0,0,71.264,18.151Z" opacity="0.1"/><path d="M30.3,24.034l-2.779,2.95a5.067,5.067,0,0,1-5.158,1.375l-4.13-1.252a1.528,1.528,0,0,0-1.959,1.274L13.961,38.87a2.546,2.546,0,0,0,2.526,2.859H39.005l3.944,0c8.359,0,14.442-1.012,16.288-3.387a1.962,1.962,0,0,0-.36-2.873c-4.809-2.428-13.516-4.077-26.69-11.705A1.533,1.533,0,0,0,30.3,24.034Z" fill="#e6e6e6"/></svg>