<svg xmlns="http://www.w3.org/2000/svg" viewBox="0 0 500 500"><path d="M297.047,436.484c-.044-.045-.094-.092-.148-.141a6.064,6.064,0,0,0-1.2-.834,6.278,6.278,0,0,0-2.877-.992c-.075-.007-.148-.025-.224-.029l-.178-.009c-.441-.023-.879-.1-1.319-.1-5.261,0-19.272-8.238-20.412-8.942a.993.993,0,0,0-1.249.168l-1.211,1.286a8.579,8.579,0,0,1-8.734,2.328l-2.121-.642a1,1,0,0,0-1.281.831l-1.48,12.955a1,1,0,0,0,.993,1.12h14.011v-2l5.677,1.2a48.917,48.917,0,0,0,8.8.8h13.889a1,1,0,0,0,1-1.057C298.892,441.141,298.512,437.948,297.047,436.484Z" fill="current"/><g opacity="0.1"><path d="M297.047,436.484c-.044-.045-.094-.092-.148-.141a6.064,6.064,0,0,0-1.2-.834,6.278,6.278,0,0,0-2.877-.992c-.075-.007-.148-.025-.224-.029l-.178-.009c-.441-.023-.879-.1-1.319-.1-5.261,0-19.272-8.238-20.412-8.942a.993.993,0,0,0-1.249.168l-1.211,1.286a8.579,8.579,0,0,1-8.734,2.328l-2.121-.642a1,1,0,0,0-1.281.831l-1.48,12.955a1,1,0,0,0,.993,1.12h14.011v-2l5.677,1.2a48.917,48.917,0,0,0,8.8.8h13.889a1,1,0,0,0,1-1.057C298.892,441.141,298.512,437.948,297.047,436.484Z"/></g><path d="M256.106,442.367c-.045-.044-.094-.091-.149-.14a6.111,6.111,0,0,0-1.2-.835,6.29,6.29,0,0,0-2.876-.992c-.076-.006-.149-.025-.225-.029l-.178-.009c-.441-.023-.878-.1-1.319-.1-5.26,0-19.271-8.237-20.412-8.941a.993.993,0,0,0-1.249.167l-1.211,1.287a8.578,8.578,0,0,1-8.733,2.328l-2.122-.643a1,1,0,0,0-1.281.831l-1.479,12.955a1,1,0,0,0,.992,1.12h14.011v-1.994l5.677,1.2a48.836,48.836,0,0,0,8.8.8h13.889a1,1,0,0,0,1-1.057C257.95,447.024,257.571,443.832,256.106,442.367Z"/></svg>