<svg xmlns="http://www.w3.org/2000/svg" viewBox="0 0 500 500"><path d="M269.521,425.792l-2.778,2.95a5.067,5.067,0,0,1-5.158,1.374l-4.13-1.251a1.527,1.527,0,0,0-1.959,1.274l-2.317,10.489a2.547,2.547,0,0,0,2.527,2.858h22.517l3.944,0c8.359,0,14.443-1.012,16.289-3.387a1.962,1.962,0,0,0-.36-2.872c-4.81-2.429-13.516-4.078-26.69-11.706A1.534,1.534,0,0,0,269.521,425.792Z" fill="current"/><path d="M269.521,425.792l-2.778,2.95a5.067,5.067,0,0,1-5.158,1.374l-4.13-1.251a1.527,1.527,0,0,0-1.959,1.274l-2.317,10.489a2.547,2.547,0,0,0,2.527,2.858h22.517l3.944,0c8.359,0,14.443-1.012,16.289-3.387a1.962,1.962,0,0,0-.36-2.872c-4.81-2.429-13.516-4.078-26.69-11.706A1.534,1.534,0,0,0,269.521,425.792Z" opacity="0.1"/><path d="M228.56,431.675l-2.779,2.95A5.065,5.065,0,0,1,220.624,436l-4.131-1.252a1.527,1.527,0,0,0-1.958,1.274l-2.317,10.489a2.546,2.546,0,0,0,2.527,2.859h22.517l3.944,0c8.359,0,14.443-1.012,16.288-3.388a1.962,1.962,0,0,0-.359-2.872c-4.81-2.428-13.516-4.077-26.69-11.7A1.535,1.535,0,0,0,228.56,431.675Z"/></svg>