<svg xmlns="http://www.w3.org/2000/svg" viewBox="0 0 115 90"><path d="M98.791,29.843c-.044-.045-.094-.092-.149-.141a6.435,6.435,0,0,0-2.513-1.367c-2.819-.82-9.97-2.946-13.688-4.48A71.83,71.83,0,0,1,72.432,18.8a.993.993,0,0,0-1.248.168l-1.212,1.286a8.58,8.58,0,0,1-8.733,2.329l-2.121-.643a1,1,0,0,0-1.283.834L56.356,34.72a1,1,0,0,0,.993,1.123h21.8l5.291,0H99.728a1,1,0,0,0,1-1.057A7.9,7.9,0,0,0,98.791,29.843Z" fill="#e6e6e6"/><path d="M98.791,29.843c-.044-.045-.094-.092-.149-.141a6.435,6.435,0,0,0-2.513-1.367c-2.819-.82-9.97-2.946-13.688-4.48A71.83,71.83,0,0,1,72.432,18.8a.993.993,0,0,0-1.248.168l-1.212,1.286a8.58,8.58,0,0,1-8.733,2.329l-2.121-.643a1,1,0,0,0-1.283.834L56.356,34.72a1,1,0,0,0,.993,1.123h21.8l5.291,0H99.728a1,1,0,0,0,1-1.057A7.9,7.9,0,0,0,98.791,29.843Z" opacity="0.1"/><path d="M57.85,35.726c-.045-.044-.095-.091-.15-.14a6.435,6.435,0,0,0-2.513-1.367c-2.819-.82-9.97-2.947-13.688-4.48A72.122,72.122,0,0,1,31.49,24.681a.992.992,0,0,0-1.248.168l-1.211,1.286A8.579,8.579,0,0,1,20.3,28.463l-2.121-.643a1,1,0,0,0-1.282.834L15.415,40.6a1,1,0,0,0,.992,1.123h21.8l5.291.006H58.786a1,1,0,0,0,1-1.057A7.909,7.909,0,0,0,57.85,35.726Z" fill="#e6e6e6"/></svg>