<svg xmlns="http://www.w3.org/2000/svg" viewBox="0 0 115 90"><path d="M99.111,28.83c-.045-.044-.094-.092-.149-.141a6.149,6.149,0,0,0-1.2-.834,6.29,6.29,0,0,0-2.876-.992c-.076-.007-.149-.025-.225-.029l-.178-.009c-.441-.023-.878-.1-1.319-.1-2.3,0-6.275-1.576-10.115-3.408h0c-7.581-3.309-8.6-13.05-8.6-13.05H57.408L54.677,34.71a1,1,0,0,0,.992,1.12H70.68V33.835l5.677,1.2a60.454,60.454,0,0,0,9.8.8h13.889a1,1,0,0,0,1-1.056C100.955,33.487,100.576,30.3,99.111,28.83Z" fill="#e6e6e6"/><path d="M99.111,28.83c-.045-.044-.094-.092-.149-.141a6.149,6.149,0,0,0-1.2-.834,6.29,6.29,0,0,0-2.876-.992c-.076-.007-.149-.025-.225-.029l-.178-.009c-.441-.023-.878-.1-1.319-.1-2.3,0-6.275-1.576-10.115-3.408h0c-7.581-3.309-8.6-13.05-8.6-13.05H57.408L54.677,34.71a1,1,0,0,0,.992,1.12H70.68V33.835l5.677,1.2a60.454,60.454,0,0,0,9.8.8h13.889a1,1,0,0,0,1-1.056C100.955,33.487,100.576,30.3,99.111,28.83Z" opacity="0.1"/><path d="M58.177,34.726c-.045-.044-.095-.091-.149-.14a6.064,6.064,0,0,0-1.2-.834,6.28,6.28,0,0,0-2.876-.993c-.076-.006-.149-.025-.225-.028l-.178-.01c-.441-.022-.878-.1-1.319-.1-2.3,0-6.275-1.575-10.115-3.407h0c-7.582-3.309-8.6-13.049-8.6-13.049H16.474L13.743,40.606a1,1,0,0,0,.992,1.12H29.746V39.732l5.677,1.2a60.446,60.446,0,0,0,9.8.8H59.113a1,1,0,0,0,1-1.057C60.021,39.384,59.642,36.191,58.177,34.726Z" fill="#e6e6e6"/></svg>