<svg xmlns="http://www.w3.org/2000/svg" viewBox="0 0 500 500"><path d="M297.049,437.484q-.067-.067-.15-.141a6.435,6.435,0,0,0-2.513-1.367c-2.819-.82-9.97-2.947-13.688-4.48a71.891,71.891,0,0,1-10.009-5.058.992.992,0,0,0-1.248.168l-1.211,1.286a8.58,8.58,0,0,1-8.734,2.328l-2.121-.642a1,1,0,0,0-1.282.834l-1.479,11.949a1,1,0,0,0,.992,1.123h21.8l5.291,0h15.284a1,1,0,0,0,1-1.057A7.9,7.9,0,0,0,297.049,437.484Z" fill="current"/><path d="M297.049,437.484q-.067-.067-.15-.141a6.435,6.435,0,0,0-2.513-1.367c-2.819-.82-9.97-2.947-13.688-4.48a71.891,71.891,0,0,1-10.009-5.058.992.992,0,0,0-1.248.168l-1.211,1.286a8.58,8.58,0,0,1-8.734,2.328l-2.121-.642a1,1,0,0,0-1.282.834l-1.479,11.949a1,1,0,0,0,.992,1.123h21.8l5.291,0h15.284a1,1,0,0,0,1-1.057A7.9,7.9,0,0,0,297.049,437.484Z" opacity="0.1"/><path d="M256.107,443.367c-.044-.044-.1-.091-.149-.14a6.42,6.42,0,0,0-2.514-1.367c-2.819-.82-9.969-2.947-13.687-4.481a71.769,71.769,0,0,1-10.009-5.058,1,1,0,0,0-1.249.168l-1.211,1.287a8.579,8.579,0,0,1-8.734,2.328l-2.121-.643a1,1,0,0,0-1.282.834l-1.479,11.949a1,1,0,0,0,.993,1.123h21.8l5.29.006h15.284a1,1,0,0,0,1-1.057A7.909,7.909,0,0,0,256.107,443.367Z"/></svg>