<svg xmlns="http://www.w3.org/2000/svg" viewBox="0 0 115 90"><path d="M98.79,28.843c-.044-.045-.094-.092-.149-.141a6.07,6.07,0,0,0-1.2-.834,6.286,6.286,0,0,0-2.877-.992c-.076-.007-.148-.025-.225-.029l-.177-.009c-.441-.023-.879-.1-1.32-.1-5.26,0-19.271-8.238-20.412-8.942a.992.992,0,0,0-1.248.168l-1.212,1.286a8.58,8.58,0,0,1-8.733,2.329l-2.121-.643a1,1,0,0,0-1.281.831l-1.48,12.955a1,1,0,0,0,.992,1.12H71.36v-2l5.677,1.2a48.826,48.826,0,0,0,8.8.8H99.727a1,1,0,0,0,1-1.057C100.634,33.5,100.255,30.307,98.79,28.843Z" fill="#e6e6e6"/><g opacity="0.1"><path d="M98.79,28.843c-.044-.045-.094-.092-.149-.141a6.07,6.07,0,0,0-1.2-.834,6.286,6.286,0,0,0-2.877-.992c-.076-.007-.148-.025-.225-.029l-.177-.009c-.441-.023-.879-.1-1.32-.1-5.26,0-19.271-8.238-20.412-8.942a.992.992,0,0,0-1.248.168l-1.212,1.286a8.58,8.58,0,0,1-8.733,2.329l-2.121-.643a1,1,0,0,0-1.281.831l-1.48,12.955a1,1,0,0,0,.992,1.12H71.36v-2l5.677,1.2a48.826,48.826,0,0,0,8.8.8H99.727a1,1,0,0,0,1-1.057C100.634,33.5,100.255,30.307,98.79,28.843Z"/></g><path d="M57.849,34.726c-.045-.044-.095-.091-.149-.14a6.064,6.064,0,0,0-1.2-.834,6.28,6.28,0,0,0-2.877-.993c-.075-.006-.148-.025-.224-.028l-.178-.01c-.441-.022-.879-.1-1.319-.1-5.261,0-19.272-8.237-20.412-8.941a.993.993,0,0,0-1.249.168L29.03,25.135A8.579,8.579,0,0,1,20.3,27.463l-2.121-.643a1,1,0,0,0-1.281.831l-1.48,12.955a1,1,0,0,0,.993,1.12H30.418V39.732l5.677,1.2a48.827,48.827,0,0,0,8.8.8H58.785a1,1,0,0,0,1-1.057C59.693,39.384,59.313,36.191,57.849,34.726Z" fill="#e6e6e6"/></svg>