<svg xmlns="http://www.w3.org/2000/svg" viewBox="0 0 500 500"><path d="M243.154,449.373h0a48.836,48.836,0,0,1-8.8-.8l-5.677-1.2v2H214.665a1,1,0,0,1-.993-1.123l1.918-16.5a1,1,0,0,1,.993-.878h13.842a2,2,0,0,1,1.189.392l4.725,3.492c4.055,3,8.8,6.012,13.821,6.507q.657.066,1.319.1l.178.009a6.147,6.147,0,0,1,5.63,4.393c.03.108.076.286.126.482a1,1,0,0,1-.713,1.21c-.334.089-.669.177-.843.22A55.2,55.2,0,0,1,243.154,449.373Z"/><path d="M284.155,443.489h0a48.914,48.914,0,0,1-8.8-.8l-5.678-1.2v2H255.666a1,1,0,0,1-.993-1.123l1.919-16.5a1,1,0,0,1,.992-.877h13.843a1.993,1.993,0,0,1,1.188.392l4.725,3.492c4.055,3,8.8,6.012,13.821,6.507q.659.065,1.32.1l.177.009a6.144,6.144,0,0,1,5.63,4.393c.03.107.077.286.126.482a1,1,0,0,1-.713,1.21c-.334.088-.669.176-.843.22A55.258,55.258,0,0,1,284.155,443.489Z" fill="current"/><g opacity="0.1"><path d="M284.155,443.489h0a48.914,48.914,0,0,1-8.8-.8l-5.678-1.2v2H255.666a1,1,0,0,1-.993-1.123l1.919-16.5a1,1,0,0,1,.992-.877h13.843a1.993,1.993,0,0,1,1.188.392l4.725,3.492c4.055,3,8.8,6.012,13.821,6.507q.659.065,1.32.1l.177.009a6.144,6.144,0,0,1,5.63,4.393c.03.107.077.286.126.482a1,1,0,0,1-.713,1.21c-.334.088-.669.176-.843.22A55.258,55.258,0,0,1,284.155,443.489Z"/></g></svg>