<svg xmlns="http://www.w3.org/2000/svg" viewBox="0 0 500 500"><path d="M242.346,112.3l-.025,0,15.451,9.834v-8.443l-10.4-.014A9.947,9.947,0,0,1,242.346,112.3Z" opacity="0.1"/><polygon points="206.505 217.01 206.505 254.167 250 254.167 219.192 175.332 206.505 217.01" opacity="0.1"/><g opacity="0.1"><polyline points="288.485 175.331 288.485 207.044 301.01 252.332 296.715 225.931 288.485 175.331"/></g><path d="M318.757,261.939l-4.616-9.607L303.3,151.253a20.652,20.652,0,0,0-14.671-17.316l-30.84-9.074,0-.008V113.663a8.435,8.435,0,0,0,7.887-8.413V87.2a14.41,14.41,0,0,0-13.463-14.53A14.147,14.147,0,0,0,237.39,86.8v3.171h-.012a5.089,5.089,0,0,0-.97.1c-.022.005-.044.006-.066.011a4.934,4.934,0,0,0-.865.268c-.032.013-.065.024-.1.038a4.988,4.988,0,0,0-.761.413c-.035.022-.07.044-.1.067a5.108,5.108,0,0,0-.653.539l-.094.094a5.133,5.133,0,0,0-.536.649l-.075.112a4.994,4.994,0,0,0-.406.748c-.017.039-.031.078-.047.117a4.974,4.974,0,0,0-.261.841c-.007.034-.012.07-.018.105a5.06,5.06,0,0,0-.094.928c0,.024,0,.048,0,.071a5.065,5.065,0,0,0,.072.713,4.717,4.717,0,0,0,.095.479c.036.14.081.276.128.411a4.847,4.847,0,0,0,.247.589c.024.049.052.095.077.142a5.028,5.028,0,0,0,4.424,2.664h.012v13.62h0v11.156l-30.274,9.029A20.654,20.654,0,0,0,192.5,151.307l-11.62,107.025v22.84a1.318,1.318,0,1,0,2.635,0v-8.6a.432.432,0,0,1,.864,0v10.8a1.318,1.318,0,1,0,2.635,0v-10.8a.432.432,0,0,1,.863,0v11.849a1.318,1.318,0,0,0,1.318,1.317h0a1.318,1.318,0,0,0,1.318-1.317V272.572a.432.432,0,0,1,.863,0v10.8a1.318,1.318,0,1,0,2.635,0V269.933a.469.469,0,0,1,.848-.275l.933,1.286a2.342,2.342,0,0,1,.446,1.375v1.745a1.426,1.426,0,1,0,2.852,0v-4.1a4.676,4.676,0,0,0-.463-2.029l-4.616-9.607h.046l12.445-41.322v37.157h0L216.68,432.056h0l-1.275,10.307a4.457,4.457,0,0,0,4.423,5h18.641l15.524,0a2.435,2.435,0,0,0,2.38-1.742,2.388,2.388,0,0,0-2.307-3.012c-14,0-19.321-3.709-25-9.528a2.989,2.989,0,0,1-.817-2.458l19.616-156.7,9.793,152.123h0l-1.275,10.307a4.457,4.457,0,0,0,4.423,5h18.641l15.524,0a2.435,2.435,0,0,0,2.38-1.742,2.388,2.388,0,0,0-2.307-3.012c-14.013,0-19.33-3.716-25.019-9.544a2.986,2.986,0,0,1-.822-2.422l19.287-170.486h0V207.044l12.525,45.288v22.84a1.318,1.318,0,1,0,2.635,0v-8.6a.432.432,0,0,1,.863,0v10.8a1.318,1.318,0,1,0,2.636,0v-10.8a.432.432,0,0,1,.863,0v11.849a1.317,1.317,0,0,0,1.317,1.317h0a1.317,1.317,0,0,0,1.317-1.317V266.572a.432.432,0,0,1,.864,0v10.8a1.318,1.318,0,1,0,2.635,0V263.933a.469.469,0,0,1,.848-.275l.933,1.286a2.345,2.345,0,0,1,.446,1.376v1.744a1.426,1.426,0,1,0,2.852,0v-4.1A4.69,4.69,0,0,0,318.757,261.939Z" fill="current"/><path d="M294.86,436.619c-13.881-.033-19.179-3.737-24.843-9.538a2.956,2.956,0,0,1-.831-2.4l19.293-170.479a.036.036,0,0,0-.035-.04H257.816a.037.037,0,0,0-.032.02l-9.92,19.737a.039.039,0,0,0,0,.018l9.779,152.114h.007l-1.271,10.267a4.492,4.492,0,0,0,4.458,5.045h18.6l15.611,0a2.377,2.377,0,0,0,2.367-2.595A2.5,2.5,0,0,0,294.86,436.619Z" opacity="0.1"/><path d="M242.346,112.3l-.025,0,15.451,9.834v-8.443l-10.4-.014A9.947,9.947,0,0,1,242.346,112.3Z" opacity="0.1"/><polygon points="206.505 217.01 206.505 254.167 250 254.167 219.192 175.332 206.505 217.01" opacity="0.1"/><g opacity="0.1"><polyline points="288.485 175.331 288.485 207.044 301.01 252.332 296.715 225.931 288.485 175.331"/></g></svg>