<svg xmlns="http://www.w3.org/2000/svg" viewBox="0 0 115 90"><path d="M73.445,26.811a17.171,17.171,0,0,0-9.637-2.942H54.484a17.627,17.627,0,0,0-12.2,5.052c-.036.036-.066.076-.1.112a17.15,17.15,0,0,0-4.95,12.085V52.683a15.027,15.027,0,0,0,4.939,11.1,10.417,10.417,0,0,1,3.048,5.2,3.791,3.791,0,0,0,3.66,2.911,1.751,1.751,0,0,1,.031-.206V59.8l0-1.516h-.008c-.013,0-.025,0-.038,0a5.03,5.03,0,0,1-4.425-2.663c-.025-.048-.053-.094-.077-.143a4.847,4.847,0,0,1-.247-.589c-.047-.135-.092-.271-.128-.411-.04-.156-.07-.317-.095-.479a5.065,5.065,0,0,1-.072-.713c0-.023,0-.047,0-.071a5.06,5.06,0,0,1,.094-.928c.006-.035.011-.071.018-.1a5.066,5.066,0,0,1,.261-.841c.016-.039.03-.078.047-.117a4.91,4.91,0,0,1,.407-.748c.024-.038.049-.075.074-.112a5.063,5.063,0,0,1,.536-.649c.031-.032.063-.063.094-.094a5.108,5.108,0,0,1,.653-.539c.034-.023.069-.044.1-.067a4.988,4.988,0,0,1,.761-.413c.031-.014.064-.025.1-.038a5.019,5.019,0,0,1,.865-.268c.022,0,.044-.006.066-.011a5.091,5.091,0,0,1,.971-.1h.074v-.006h.006a.449.449,0,0,1,.083,0l.1,0,.121,0,.145,0h1.97c2.228,0,5.189.015,5.189.015,9.025,0,14.219-3.833,17.144-7.571h0a16.934,16.934,0,0,0,2.608-5.767l.02-.074A7.281,7.281,0,0,0,73.445,26.811Z" fill="current"/></svg>