<svg xmlns="http://www.w3.org/2000/svg" viewBox="0 0 120 200"><path d="M21.153,10.277c0,.732.064,73.458.806,97.56.527,17.12,2.528,62.926,3.129,76.558a5.113,5.113,0,0,0,5.12,4.9H47.129a5.131,5.131,0,0,0,5.115-4.807c1.075-17.575,3.742-60.234,5.272-76.721,1.377-14.833,3.549-59.562,3.57-60a1.08,1.08,0,0,1,1.113-.989h.039a1.08,1.08,0,0,1,1.088,1.048c-.007.453-.688,45.4-.251,60.306.455,15.562,1,57.6,1.158,70.111a5.14,5.14,0,0,0,5.124,5.054H86.265a5.108,5.108,0,0,0,5.1-4.61c1.27-12.574,5.512-54.824,6.828-70.548,2.025-24.184,5.159-97.117,5.191-97.851l.005-.13H21.153Z" fill="#e6e6e6"/></svg>