<svg xmlns="http://www.w3.org/2000/svg" viewBox="0 0 115 90"><path d="M77.7,23.869H61.848a17.24,17.24,0,0,0-15.223,9.144,9.247,9.247,0,1,0-2.026,17.1v2.7A11.238,11.238,0,0,0,55.922,63.788h.355v-5.5h-.024l-.093,0c-.045,0-.089,0-.135,0-.148,0-.3-.025-.449-.045h-.013c-.072-.009-.143-.02-.216-.034-.092-.017-.188-.047-.282-.072s-.165-.039-.246-.064l-.01,0-.012,0a5.072,5.072,0,0,1-2.949-2.435c-.025-.048-.053-.094-.077-.143a4.853,4.853,0,0,1-.248-.589c-.047-.135-.092-.271-.127-.411-.009-.035-.013-.072-.021-.107a2.194,2.194,0,0,1-.084-.287,5.064,5.064,0,0,1-.06-.78l0-.018c0-.023,0-.047,0-.071s.005-.032.005-.049a5.079,5.079,0,0,1,.087-.869v-.01c.007-.035.011-.071.018-.1s.014-.04.019-.06c.016-.071.027-.143.046-.212.008-.028.011-.056.02-.083a4.661,4.661,0,0,1,.176-.485h0a5.043,5.043,0,0,1,.44-.84l.014-.025c.024-.038.049-.075.074-.112.016-.022.036-.04.052-.062a4.978,4.978,0,0,1,.424-.515c.022-.023.038-.05.06-.072l.062-.062c.013-.012.023-.026.036-.038s.031-.036.048-.052c.1-.1.222-.172.332-.258.091-.073.174-.156.269-.223.035-.023.07-.044.1-.067s.057-.028.083-.045a4.866,4.866,0,0,1,.535-.306c.026-.012.056-.018.083-.029s.039-.024.061-.033.064-.025.095-.038c.116-.046.24-.072.359-.111.095-.03.184-.074.282-.1.033-.009.068-.012.1-.02s.08-.029.122-.038c.022,0,.045-.006.067-.011.043-.008.09-.006.134-.013s.066-.014.1-.019l.054-.011c.04-.006.079-.018.12-.023.08-.009.163-.008.245-.014l.109-.006c.063,0,.125-.01.189-.01h3.024a5.434,5.434,0,0,0,5.434-5.434,5.434,5.434,0,0,1,5.434-5.434h8.66a6.077,6.077,0,0,0,6-5.1A7.194,7.194,0,0,0,77.7,23.869Z" fill="current"/></svg>