<svg xmlns="http://www.w3.org/2000/svg" viewBox="0 0 120 200"><path d="M103.323,10.152H21.1l-.149,2.205A731.032,731.032,0,0,0,26.887,166.6a88.279,88.279,0,0,0,4.079,16.589l.241,4.1H43.023L43.5,183.2a220.682,220.682,0,0,0,6.644-33.129l4.421-36.352c1.845-12.882,3.365-25.992,4.516-38.963l1.688-19a1.066,1.066,0,0,1,.926-1.009,1.132,1.132,0,0,1,1.216.63c-.563,31.559-.419,68.759,4.909,105.4A88.25,88.25,0,0,0,71.9,177.358l.241,4.1H83.958l.5-4.092c.284-1.009.624-2.128,1.016-3.423,3.666-12.082,12.249-40.374,17.37-123.418l-.014-.1c.006-.1.014-.2.023-.306.015-.179.029-.357.036-.543.445-12.846.592-26.068.44-39.3Z" fill="#e6e6e6"/></svg>