<svg xmlns="http://www.w3.org/2000/svg" viewBox="0 0 500 500" fill="current"><path d="M319.22,263.968v4.1a1.426,1.426,0,1,1-2.852.008V266.32a2.345,2.345,0,0,0-.446-1.376l-.933-1.286a.469.469,0,0,0-.848.275v13.435a1.318,1.318,0,1,1-2.635.072q0-.036,0-.072v-10.8a.432.432,0,0,0-.864,0v11.849a1.317,1.317,0,0,1-1.317,1.317h0a1.317,1.317,0,0,1-1.317-1.317V266.572a.432.432,0,0,0-.863,0v10.8a1.318,1.318,0,0,1-2.636.008V266.572a.432.432,0,0,0-.863,0v8.6a1.318,1.318,0,1,1-2.635.072q0-.036,0-.072v-22.84l-12.525-45.288v47.123h0L270.012,426.056a11.455,11.455,0,0,0,8.93,6.256l12.255,1.415a11.457,11.457,0,0,1,8.491,5.458l2.638,4.371H273.2l-1.664-1.544a1.17,1.17,0,0,0-1.653.061l0,0-1.364,1.479h-11a11.405,11.405,0,0,0-2.775-2.3l1.882-15.2L247.86,273.933l-18.8,158.123a11.457,11.457,0,0,0,8.931,6.256l12.254,1.415a11.529,11.529,0,0,1,7.275,3.829,11.369,11.369,0,0,1,1.216,1.629l2.639,4.371H232.251l-1.664-1.544a1.171,1.171,0,0,0-1.655.062l0,0-1.363,1.479H213.509l2.166-17.5h-.025L206.5,254.167h0V217.01l-12.44,41.322h-.046l4.616,9.607a4.672,4.672,0,0,1,.463,2.029v4.1a1.426,1.426,0,1,1-2.852,0h0V272.32a2.345,2.345,0,0,0-.446-1.376l-.933-1.286a.469.469,0,0,0-.848.275v13.435a1.318,1.318,0,0,1-2.635.073c0-.024,0-.049,0-.073v-10.8a.432.432,0,0,0-.863,0v11.849a1.318,1.318,0,0,1-1.318,1.317h0a1.318,1.318,0,0,1-1.318-1.317V272.572a.432.432,0,0,0-.863,0v10.8a1.318,1.318,0,1,1-2.635.073c0-.024,0-.049,0-.073v-10.8a.432.432,0,0,0-.864,0v8.6a1.318,1.318,0,1,1-2.635.073c0-.024,0-.049,0-.073v-22.84L192.5,151.307a20.654,20.654,0,0,1,14.613-17.431l30.274-9.029V113.691h0v-6.245a9.227,9.227,0,0,0-1.761-4.746,20.31,20.31,0,0,1-4.2-11.979V87.04A14.5,14.5,0,0,1,242.737,72.8h-.083c.186-.037.374-.063.56-.1.127-.022.252-.047.38-.065a30.376,30.376,0,0,1,10.521.1c.111.021.226.035.337.059h0l.173.034h-.04a14.146,14.146,0,0,1,11.1,13.808V105.25a8.388,8.388,0,0,1-1.786,5.188c-.16.2-.329.4-.507.589a8.426,8.426,0,0,1-5.594,2.636v11.192h0l30.84,9.074A20.652,20.652,0,0,1,303.3,151.253l10.838,101.079,4.616,9.607A4.675,4.675,0,0,1,319.22,263.968Z"/><g opacity="0.1"><path d="M242.346,112.3h-.025l15.451,9.834v-8.443l-10.4-.014a9.949,9.949,0,0,1-5.026-1.377" fill="#606060"/><polyline points="288.485 175.331 288.485 207.044 301.01 252.332 296.715 225.931 288.485 175.331" fill="#606060"/><polyline points="219.192 175.332 206.505 217.01 206.505 254.167 250 254.167 219.192 175.332" fill="#606060"/><path d="M288.467,254.167h-30.69l-9.935,19.766,8.768,152.123-1.882,15.2a11.405,11.405,0,0,1,2.775,2.3h11l1.363-1.479a1.171,1.171,0,0,1,1.655-.068l0,0,1.665,1.544H302.31l-2.639-4.371a11.457,11.457,0,0,0-8.491-5.458l-12.255-1.415a11.453,11.453,0,0,1-8.93-6.256l18.472-171.889" fill="#606060"/></g></svg>